# Blender 4.1.1
# www.blender.org
mtllib Item.mtl
o Cube
v 0.565747 0.603416 -0.280000
v 0.814068 0.146540 -0.280000
v 0.565747 0.603416 0.280000
v 0.814068 0.146540 0.280000
v -0.814068 -0.146540 -0.280000
v -0.565747 -0.603416 -0.280000
v -0.814068 -0.146540 0.280000
v -0.565747 -0.603416 0.280000
v 1.233679 1.351520 -0.644351
v 1.805129 0.300130 -0.644351
v 1.233679 1.351520 0.644351
v 1.805129 0.300130 0.644351
v 0.558065 0.599241 -0.280000
v 0.806386 0.142364 -0.280000
v 0.558065 0.599241 0.280000
v 0.806386 0.142364 0.280000
vn -0.4775 0.8786 -0.0000
vn -0.0000 -0.0000 1.0000
vn -0.8786 -0.4775 -0.0000
vn 0.4775 -0.8786 -0.0000
vn -0.0000 -0.0000 -1.0000
vn -0.7440 0.6682 -0.0000
vn -0.3138 -0.1706 0.9340
vn 0.1560 -0.9878 -0.0000
vn 0.8786 0.4775 -0.0000
vn -0.3138 -0.1706 -0.9340
vt 0.196560 0.260014
vt 0.073258 0.519985
vt 0.004923 0.451650
vt 0.456531 0.519985
vt 0.328348 0.264895
vt 0.519985 0.456531
vt 0.264895 0.328348
vt 0.260014 0.196560
vt 0.451650 0.004923
vt 0.068377 0.004923
vt 0.995077 0.401198
vt 0.758781 0.393636
vt 0.914009 0.234378
vt 0.610899 0.249495
vt 0.594093 0.478951
vt 0.529832 0.416315
vt 0.766127 0.090238
vt 0.529832 0.082676
vt 0.597286 0.013471
vt 0.995077 0.067559
vt 0.930815 0.004923
vt 0.519985 0.073258
vt 0.004923 0.068377
vt 0.927623 0.470403
s 0
usemtl Material
f 5/1/1 3/2/1 1/3/1
f 3/4/2 8/5/2 4/6/2
f 7/7/3 6/8/3 8/5/3
f 2/9/4 8/5/4 6/8/4
f 5/1/5 2/10/5 6/8/5
f 13/11/6 11/12/6 9/13/6
f 12/14/7 15/15/7 16/16/7
f 10/17/8 16/18/8 14/19/8
f 9/13/9 12/14/9 10/17/9
f 13/20/10 10/17/10 14/21/10
f 5/1/1 7/7/1 3/2/1
f 3/4/2 7/7/2 8/5/2
f 7/7/3 5/1/3 6/8/3
f 2/9/4 4/22/4 8/5/4
f 5/1/5 1/23/5 2/10/5
f 13/11/6 15/24/6 11/12/6
f 12/14/7 11/12/7 15/15/7
f 10/17/8 12/14/8 16/18/8
f 9/13/9 11/12/9 12/14/9
f 13/20/10 9/13/10 10/17/10
