# Blender 4.1.1
# www.blender.org
mtllib Goal.mtl
o フラッグ
v -0.172937 11.388153 -0.185678
v 0.172937 11.388153 0.185676
v 0.172937 11.388153 -0.185678
v -0.172937 -0.293762 0.185677
v 0.172937 -0.293762 0.185677
v -0.172937 11.388153 0.185676
v -0.172937 -0.293762 -0.185677
v 0.172937 -0.293762 -0.185677
v -0.222675 11.369830 -7.122516
v -0.066916 7.897603 -7.590876
v -0.222675 7.897603 -7.122516
v -0.066916 11.369830 -7.590876
v 0.066916 7.897603 -7.590876
v -0.071863 11.369831 -1.033851
v 0.066916 7.897603 -0.097133
v -0.071863 7.897603 -1.033851
v 0.066916 11.369831 -0.097133
v -0.066916 7.897603 -0.097133
v -0.205695 7.897603 -1.033851
v -0.066916 11.369831 -0.097133
v -0.497991 11.369831 -4.312363
v -0.541491 11.369831 -3.844004
v -0.407660 11.369831 -3.844004
v -0.497991 7.897603 -4.312363
v -0.541491 7.897603 -3.844004
v -0.631823 7.897603 -4.312363
v -0.407660 7.897603 -3.844004
v -0.301559 11.369831 -3.375645
v -0.301559 7.897603 -3.375645
v -0.205695 11.369831 -1.033851
v 0.470305 7.897603 -1.970569
v 0.253585 11.369831 -2.438927
v 0.470305 11.369831 -1.970569
v 0.604137 11.369831 -1.970569
v 0.253585 7.897603 -2.438927
v 0.119753 7.897603 -2.438927
v 0.604137 7.897603 -1.970569
v -0.088843 11.369831 -6.185798
v 0.066916 7.897603 -5.717439
v -0.088843 7.897603 -6.185798
v -0.066916 7.897603 -5.717439
v -0.222675 7.897603 -6.185798
v -0.066916 11.369831 -5.717439
v 0.066916 11.369831 -5.717439
v -0.394535 11.369831 -5.249081
v -0.394535 7.897603 -5.249081
v -0.244601 11.369830 -6.654157
v -0.088843 11.369830 -7.122516
v -0.244601 7.897603 -6.654157
v -0.378433 7.897603 -6.654157
v -0.088843 7.897603 -7.122516
v -0.222675 11.369831 -6.185798
v -0.167728 11.369831 -3.375645
v 0.072204 7.897603 -2.907286
v -0.167728 7.897603 -3.375645
v -0.061627 7.897603 -2.907286
v -0.061627 11.369831 -2.907286
v 0.072204 11.369831 -2.907286
v 0.119753 11.369831 -2.438927
v -0.631823 11.369831 -4.312363
v -0.722154 7.897603 -4.780722
v -0.260703 11.369831 -5.249081
v -0.588322 7.897603 -4.780722
v -0.260703 7.897603 -5.249081
v -0.588322 11.369831 -4.780722
v -0.722154 11.369831 -4.780722
v 0.066916 11.369830 -7.590876
v -0.378433 11.369830 -6.654157
vn -0.0000 1.0000 -0.0000
vn -0.0000 -0.0000 1.0000
vn -1.0000 -0.0000 -0.0000
vn -0.0000 -1.0000 -0.0000
vn 1.0000 -0.0000 -0.0000
vn -0.0000 -0.0000 -1.0000
vn -0.9489 -0.0000 -0.3156
vn 0.9892 -0.0000 -0.1466
vn 0.9819 -0.0000 -0.1894
vn -0.8900 -0.0000 0.4559
vn -0.8109 -0.0000 -0.5852
vn 0.8006 -0.0000 -0.5992
vn 0.9489 -0.0000 -0.3156
vn -0.8194 -0.0000 -0.5732
vn 0.9489 -0.0000 0.3156
vn -0.9489 -0.0000 0.3156
vn 0.8900 -0.0000 -0.4559
vn -0.9325 -0.0000 0.3611
vn -0.9819 -0.0000 0.1894
vn 0.8194 -0.0000 0.5732
vn -0.9892 -0.0000 0.1466
vn 0.8109 -0.0000 0.5852
vn -0.8006 -0.0000 0.5992
vn 0.9325 -0.0000 -0.3611
vt 0.875000 0.500000
vt 0.625000 0.750000
vt 0.625000 0.500000
vt 0.375000 1.000000
vt 0.375000 0.750000
vt 0.625000 0.000000
vt 0.375000 0.250000
vt 0.375000 0.000000
vt 0.375000 0.500000
vt 0.125000 0.750000
vt 0.125000 0.500000
vt 0.625000 0.250000
vt 0.875000 0.750000
vt 0.625000 1.000000
vt 0.625000 0.234375
vt 0.375000 0.234375
vt 0.625000 0.718750
vt 0.375000 0.718750
vt 0.125000 0.718750
vt 0.625000 0.609375
vt 0.875000 0.625000
vt 0.625000 0.625000
vt 0.375000 0.609375
vt 0.125000 0.625000
vt 0.125000 0.609375
vt 0.375000 0.625000
vt 0.625000 0.109375
vt 0.375000 0.125000
vt 0.375000 0.109375
vt 0.625000 0.031250
vt 0.375000 0.062500
vt 0.375000 0.031250
vt 0.625000 0.671875
vt 0.875000 0.687500
vt 0.625000 0.687500
vt 0.375000 0.671875
vt 0.125000 0.687500
vt 0.125000 0.671875
vt 0.375000 0.687500
vt 0.625000 0.546875
vt 0.375000 0.562500
vt 0.375000 0.546875
vt 0.125000 0.562500
vt 0.125000 0.546875
vt 0.875000 0.562500
vt 0.625000 0.562500
vt 0.625000 0.171875
vt 0.375000 0.187500
vt 0.375000 0.171875
vt 0.875000 0.515625
vt 0.625000 0.531250
vt 0.625000 0.515625
vt 0.125000 0.515625
vt 0.375000 0.531250
vt 0.125000 0.531250
vt 0.375000 0.515625
vt 0.625000 0.203125
vt 0.375000 0.218750
vt 0.375000 0.203125
vt 0.625000 0.640625
vt 0.375000 0.656250
vt 0.375000 0.640625
vt 0.125000 0.656250
vt 0.125000 0.640625
vt 0.875000 0.656250
vt 0.625000 0.656250
vt 0.625000 0.078125
vt 0.375000 0.093750
vt 0.375000 0.078125
vt 0.625000 0.140625
vt 0.375000 0.156250
vt 0.375000 0.140625
vt 0.625000 0.578125
vt 0.375000 0.593750
vt 0.375000 0.578125
vt 0.125000 0.578125
vt 0.125000 0.593750
vt 0.875000 0.578125
vt 0.625000 0.593750
vt 0.625000 0.062500
vt 0.875000 0.671875
vt 0.875000 0.640625
vt 0.625000 0.093750
vt 0.625000 0.125000
vt 0.875000 0.609375
vt 0.625000 0.156250
vt 0.625000 0.187500
vt 0.875000 0.546875
vt 0.625000 0.218750
vt 0.875000 0.718750
vt 0.875000 0.531250
vt 0.875000 0.593750
s 0
usemtl Material.001
f 1/1/1 2/2/1 3/3/1
f 2/2/2 4/4/2 5/5/2
f 6/6/3 7/7/3 4/8/3
f 8/9/4 4/10/4 7/11/4
f 3/3/5 5/5/5 8/9/5
f 1/12/6 8/9/6 7/7/6
f 1/1/1 6/13/1 2/2/1
f 2/2/2 6/14/2 4/4/2
f 6/6/3 1/12/3 7/7/3
f 8/9/4 5/5/4 4/10/4
f 3/3/5 2/2/5 5/5/5
f 1/12/6 3/3/6 8/9/6
f 9/15/7 10/7/7 11/16/7
f 12/12/6 13/9/6 10/7/6
f 14/17/8 15/5/8 16/18/8
f 17/2/2 18/4/2 15/5/2
f 16/18/4 18/10/4 19/19/4
f 14/17/1 20/13/1 17/2/1
f 21/20/1 22/21/1 23/22/1
f 24/23/4 25/24/4 26/25/4
f 21/20/9 27/26/9 24/23/9
f 28/27/10 25/28/10 29/29/10
f 30/30/11 31/31/11 19/32/11
f 32/33/1 33/34/1 34/35/1
f 35/36/4 31/37/4 36/38/4
f 32/33/12 37/39/12 35/36/12
f 38/40/13 39/41/13 40/42/13
f 40/42/4 41/43/4 42/44/4
f 38/40/1 43/45/1 44/46/1
f 45/47/14 41/48/14 46/49/14
f 9/50/1 47/51/1 48/52/1
f 11/53/4 49/54/4 50/55/4
f 48/52/15 49/54/15 51/56/15
f 52/57/16 50/58/16 42/59/16
f 53/60/17 54/61/17 55/62/17
f 55/62/4 56/63/4 29/64/4
f 53/60/1 57/65/1 58/66/1
f 59/67/18 56/68/18 36/69/18
f 60/70/19 61/71/19 26/72/19
f 62/73/20 63/74/20 64/75/20
f 46/76/4 63/74/4 61/77/4
f 45/78/1 65/79/1 62/73/1
f 20/6/21 19/32/21 18/8/21
f 33/34/1 14/17/1 34/35/1
f 31/37/4 16/18/4 19/19/4
f 34/35/22 16/18/22 37/39/22
f 33/80/23 36/69/23 31/31/23
f 58/66/24 35/36/24 54/61/24
f 54/61/4 36/38/4 56/63/4
f 58/66/1 59/81/1 32/33/1
f 23/22/1 28/82/1 53/60/1
f 27/26/4 29/64/4 25/24/4
f 23/22/17 55/62/17 27/26/17
f 57/83/10 29/29/10 56/68/10
f 22/84/19 26/72/19 25/28/19
f 65/79/9 24/23/9 63/74/9
f 63/74/4 26/25/4 61/77/4
f 65/79/1 60/85/1 21/20/1
f 43/45/1 62/73/1 44/46/1
f 41/43/4 64/75/4 46/76/4
f 44/46/20 64/75/20 39/41/20
f 66/86/14 46/49/14 61/71/14
f 43/87/16 42/59/16 41/48/16
f 47/51/1 52/88/1 38/40/1
f 49/54/4 42/44/4 50/55/4
f 47/51/13 40/42/13 49/54/13
f 67/3/15 51/56/15 13/9/15
f 10/11/4 51/56/4 11/53/4
f 12/1/1 48/52/1 67/3/1
f 68/89/7 11/16/7 50/58/7
f 9/15/7 12/12/7 10/7/7
f 12/12/6 67/3/6 13/9/6
f 14/17/8 17/2/8 15/5/8
f 17/2/2 20/14/2 18/4/2
f 16/18/4 15/5/4 18/10/4
f 14/17/1 30/90/1 20/13/1
f 21/20/1 60/85/1 22/21/1
f 24/23/4 27/26/4 25/24/4
f 21/20/9 23/22/9 27/26/9
f 28/27/10 22/84/10 25/28/10
f 30/30/11 33/80/11 31/31/11
f 32/33/1 59/81/1 33/34/1
f 35/36/4 37/39/4 31/37/4
f 32/33/12 34/35/12 37/39/12
f 38/40/13 44/46/13 39/41/13
f 40/42/4 39/41/4 41/43/4
f 38/40/1 52/88/1 43/45/1
f 45/47/14 43/87/14 41/48/14
f 9/50/1 68/91/1 47/51/1
f 11/53/4 51/56/4 49/54/4
f 48/52/15 47/51/15 49/54/15
f 52/57/16 68/89/16 50/58/16
f 53/60/17 58/66/17 54/61/17
f 55/62/4 54/61/4 56/63/4
f 53/60/1 28/82/1 57/65/1
f 59/67/18 57/83/18 56/68/18
f 60/70/19 66/86/19 61/71/19
f 62/73/20 65/79/20 63/74/20
f 46/76/4 64/75/4 63/74/4
f 45/78/1 66/92/1 65/79/1
f 20/6/21 30/30/21 19/32/21
f 33/34/1 30/90/1 14/17/1
f 31/37/4 37/39/4 16/18/4
f 34/35/22 14/17/22 16/18/22
f 33/80/23 59/67/23 36/69/23
f 58/66/24 32/33/24 35/36/24
f 54/61/4 35/36/4 36/38/4
f 58/66/1 57/65/1 59/81/1
f 23/22/1 22/21/1 28/82/1
f 27/26/4 55/62/4 29/64/4
f 23/22/17 53/60/17 55/62/17
f 57/83/10 28/27/10 29/29/10
f 22/84/19 60/70/19 26/72/19
f 65/79/9 21/20/9 24/23/9
f 63/74/4 24/23/4 26/25/4
f 65/79/1 66/92/1 60/85/1
f 43/45/1 45/78/1 62/73/1
f 41/43/4 39/41/4 64/75/4
f 44/46/20 62/73/20 64/75/20
f 66/86/14 45/47/14 46/49/14
f 43/87/16 52/57/16 42/59/16
f 47/51/1 68/91/1 52/88/1
f 49/54/4 40/42/4 42/44/4
f 47/51/13 38/40/13 40/42/13
f 67/3/15 48/52/15 51/56/15
f 10/11/4 13/9/4 51/56/4
f 12/1/1 9/50/1 48/52/1
f 68/89/7 9/15/7 11/16/7
